<svg width="116" height="36" viewBox="0 0 116 36" fill="none" xmlns="http://www.w3.org/2000/svg">
<path d="M17.734 36C27.5282 36 35.4679 27.9411 35.4679 18C35.4679 8.05887 27.5282 0 17.734 0C7.93976 0 0 8.05887 0 18C0 27.9411 7.93976 36 17.734 36Z" fill="url(#paint0_linear)"/>
<path d="M114.261 13.1323C113.794 13.1319 113.346 13.3198 113.015 13.6548C112.685 13.9898 112.499 14.4444 112.498 14.9186V21.384C112.353 23.3929 110.778 24.8427 108.695 24.8427C106.612 24.8427 105.084 22.8723 105.084 21.1898V14.8282C105.055 13.8662 104.279 13.1016 103.33 13.1016C102.382 13.1016 101.605 13.8662 101.576 14.8282V21.1898C101.576 25.1641 104.753 28.1173 108.668 28.1223C110.07 28.1223 111.537 27.4794 112.543 26.7227V27.3355C112.543 29.6357 110.631 31.5207 108.365 31.5207C107.4 31.5229 106.465 31.179 105.726 30.5498C104.978 29.9469 103.893 30.0587 103.28 30.8019C102.667 31.545 102.749 32.6488 103.465 33.2903C105.736 35.225 108.906 35.6492 111.593 34.3779C114.28 33.1066 115.999 30.3701 116 27.3606V14.9354C116.004 14.4612 115.822 14.0048 115.494 13.6667C115.167 13.3285 114.72 13.1363 114.253 13.1323H114.261Z" fill="white"/>
<path d="M57.1678 6.70703C56.1949 6.70703 55.4062 7.50752 55.4062 8.49498V27.0776C55.4062 28.065 56.1949 28.8655 57.1678 28.8655C58.1406 28.8655 58.9293 28.065 58.9293 27.0776V8.49498C58.9293 7.50752 58.1406 6.70703 57.1678 6.70703Z" fill="white"/>
<path d="M51.1005 10.2852C52.1231 10.1747 52.8752 9.41964 52.8752 8.49721C52.8734 7.51079 52.0855 6.71186 51.1137 6.71094H51.1005C47.9063 6.73241 45.2922 9.29727 45.1628 12.5368V27.1016C45.1363 28.0864 45.8998 28.9074 46.87 28.9374C47.8403 28.9674 48.6516 28.1951 48.6842 27.2104C48.6842 27.1752 48.6842 27.1384 48.6842 27.1016V16.3873H50.8201C51.7092 16.3873 52.4299 15.6557 52.4299 14.7533C52.4299 13.851 51.7092 13.1194 50.8201 13.1194H48.6759V12.8951C48.6726 11.534 49.5979 10.4492 51.1005 10.2852Z" fill="white"/>
<path d="M87.3905 13.1003H85.906V8.49647C85.9272 7.8567 85.6098 7.25426 85.0739 6.9169C84.5379 6.57954 83.8651 6.55875 83.3099 6.86239C82.7547 7.16603 82.4018 7.74777 82.3846 8.38765C82.3846 8.42281 82.3846 8.45964 82.3846 8.49647V13.1003H80.9134C80.0239 13.0711 79.2795 13.7794 79.2509 14.6823C79.2222 15.5852 79.92 16.3407 80.8095 16.3698C80.8436 16.3698 80.8782 16.3698 80.9134 16.3698H82.3896V23.2002C82.3901 25.545 83.7386 27.6739 85.8401 28.6477C85.9275 28.6879 86.0149 28.7264 86.1056 28.7632C86.9958 29.0981 87.9871 28.6544 88.3438 27.7613C88.7006 26.8683 88.2937 25.8492 87.4251 25.4602L87.3476 25.4234C86.4803 25.0332 85.9193 24.163 85.9143 23.2002V16.3681H87.3872C88.2762 16.3681 88.9969 15.6366 88.9969 14.7342C88.9969 13.8318 88.2762 13.1003 87.3872 13.1003H87.3905Z" fill="white"/>
<path d="M97.7483 10.2852C98.7692 10.1747 99.5213 9.41964 99.5213 8.49721C99.5213 7.51068 98.7334 6.71094 97.7614 6.71094H97.7483C94.5537 6.73156 91.9391 9.2969 91.8105 12.5368V27.1016C91.8105 28.089 92.5992 28.8895 93.5721 28.8895C94.5449 28.8895 95.3336 28.089 95.3336 27.1016V16.3873H97.4679C98.3569 16.3873 99.0776 15.6557 99.0776 14.7533C99.0776 13.851 98.3569 13.1194 97.4679 13.1194H95.3237V12.8951C95.3204 11.534 96.2457 10.4492 97.7483 10.2852Z" fill="white"/>
<path d="M75.8461 13.1234C75.0684 13.1234 74.3824 13.6402 74.1571 14.3957C70.8227 11.9004 66.1687 12.3722 63.3864 15.4875C60.6041 18.6029 60.597 23.3503 63.3699 26.4742C66.1428 29.5982 70.7955 30.0843 74.1373 27.5994C74.3974 28.4406 75.2229 28.9638 76.0817 28.8318C76.9406 28.6998 77.5765 27.952 77.5795 27.0703L77.6043 14.913C77.6052 13.9262 76.8183 13.1252 75.8461 13.1234ZM71.1008 25.4548H71.0876C71.0299 25.4783 70.9705 25.5 70.9112 25.5201L70.8732 25.5335C70.8188 25.5519 70.7644 25.5703 70.7083 25.5854L70.6506 25.6022L70.4988 25.644L70.4246 25.6607C70.3784 25.6708 70.3322 25.6825 70.2844 25.6909L70.192 25.7076L70.0634 25.7294C70.0257 25.732 69.9883 25.7371 69.9512 25.7445L69.8391 25.7578L69.6972 25.7696H69.3674C66.7659 25.7659 64.6548 23.6321 64.6403 20.9917V20.9716C64.6421 18.3204 66.7586 16.1713 69.3707 16.1686H69.7005L69.8407 16.1786L69.9545 16.1937L70.0667 16.2071L70.1953 16.2288L70.2877 16.2456L70.4279 16.2774L70.5021 16.2941L70.6539 16.3343L70.7116 16.351L70.8765 16.4046L70.9161 16.418C70.9755 16.4381 71.0332 16.4599 71.0926 16.4833H71.1107C72.9185 17.2052 74.1071 18.9763 74.1071 20.9481C74.1071 22.92 72.9185 24.691 71.1107 25.413L71.1008 25.4548Z" fill="white"/>
<path d="M12.428 11.0898C12.3067 11.09 12.1855 11.0978 12.0651 11.1133C12.0976 11.2674 12.1142 11.4245 12.1146 11.582C12.1167 12.2724 11.7991 12.9237 11.2569 13.3407C10.7148 13.7577 10.0112 13.8919 9.35687 13.7031C9.12727 15.0147 9.73068 16.3319 10.8667 16.9989C12.0027 17.666 13.4284 17.5403 14.4342 16.6845C15.4399 15.8287 15.8106 14.4257 15.3618 13.1739C14.9129 11.9222 13.7404 11.0893 12.428 11.0898Z" fill="#221F1F"/>
<path d="M10.9271 8.46876C8.47929 8.46469 6.27025 9.95823 5.33073 12.2525C4.3912 14.5468 4.90636 17.1896 6.63583 18.9479C8.3653 20.7062 10.9682 21.2334 13.2301 20.2835C15.492 19.3337 16.9671 17.0939 16.9671 14.6094C16.9684 12.9821 16.3328 11.421 15.2001 10.2694C14.0674 9.1178 12.5303 8.47009 10.9271 8.46876ZM12.4247 17.4269C11.4997 17.4309 10.621 17.0165 10.0274 16.2965C9.43373 15.5765 9.18678 14.6255 9.35363 13.702C10.0079 13.8908 10.7116 13.7566 11.2537 13.3396C11.7958 12.9226 12.1135 12.2713 12.1114 11.5809C12.1109 11.4234 12.0944 11.2663 12.0619 11.1122C12.1822 11.0967 12.3034 11.0889 12.4247 11.0887C14.1491 11.0887 15.547 12.5076 15.547 14.2578C15.547 16.0081 14.1491 17.4269 12.4247 17.4269Z" fill="white"/>
<path d="M26.5558 11.0898C26.4345 11.0901 26.3133 11.0979 26.193 11.1133C26.2268 11.2672 26.244 11.4244 26.2441 11.582C26.2445 12.1663 26.0163 12.7269 25.6095 13.1404C25.2028 13.5538 24.6509 13.7864 24.0752 13.7868C23.8754 13.7868 23.6766 13.758 23.4847 13.7015C23.4517 13.8854 23.4346 14.0719 23.4336 14.2589C23.4336 16.0092 24.8315 17.428 26.5558 17.428C28.2802 17.428 29.6781 16.0092 29.6781 14.2589C29.6781 12.5087 28.2802 11.0898 26.5558 11.0898Z" fill="#221F1F"/>
<path d="M25.0228 8.46876C22.575 8.46469 20.366 9.95823 19.4264 12.2525C18.4869 14.5468 19.0021 17.1896 20.7315 18.9479C22.461 20.7062 25.0639 21.2334 27.3258 20.2835C29.5877 19.3337 31.0628 17.0939 31.0628 14.6094C31.0641 12.9821 30.4285 11.421 29.2958 10.2694C28.1631 9.1178 26.626 8.47009 25.0228 8.46876ZM26.5567 17.4269C24.8327 17.426 23.4354 16.0077 23.4345 14.2578C23.4355 14.0708 23.4526 13.8843 23.4856 13.7003C23.6775 13.7569 23.8763 13.7857 24.0761 13.7857C24.6518 13.7853 25.2037 13.5527 25.6104 13.1393C26.0172 12.7258 26.2454 12.1652 26.245 11.5809C26.2448 11.4232 26.2277 11.2661 26.1939 11.1122C26.3142 11.0968 26.4354 11.089 26.5567 11.0887C28.2811 11.0887 29.679 12.5076 29.679 14.2578C29.679 16.0081 28.2811 17.4269 26.5567 17.4269Z" fill="white"/>
<defs>
<linearGradient id="paint0_linear" x1="17.734" y1="0" x2="17.734" y2="36" gradientUnits="userSpaceOnUse">
<stop stop-color="#F9A11B"/>
<stop offset="1" stop-color="#F16A21"/>
</linearGradient>
</defs>
</svg>
